<svg width="600" height="480" viewBox="0 0 320 220" xmlns="http://www.w3.org/2000/svg">
  <rect width="320" height="220" fill="#fff"/>
  <text x="20" y="30" font-size="18" font-family="sans-serif" fill="#222">Claims by Channel</text>
  <!-- Donut chart -->
  <circle cx="160" cy="120" r="70" fill="#eee"/>
  <path d="M160,120 L160,50 A70,70 0 0,1 232.2,170.6 Z" fill="#f85c70"/>
  <path d="M160,120 L232.2,170.6 A70,70 0 1,1 160,50 Z" fill="#47d8e0"/>
  <path d="M160,120 L160,50 A70,70 0 0,1 160,190 Z" fill="#a3c14a"/>
  <!-- Donut hole -->
  <circle cx="160" cy="120" r="35" fill="#fff"/>
  <!-- Legends -->
  <rect x="250" y="70" width="14" height="14" fill="#f85c70"/>
  <text x="270" y="82" font-size="13" fill="#444">Online</text>
  <rect x="250" y="90" width="14" height="14" fill="#47d8e0"/>
  <text x="270" y="102" font-size="13" fill="#444">Agent</text>
  <rect x="250" y="110" width="14" height="14" fill="#a3c14a"/>
  <text x="270" y="122" font-size="13" fill="#444">Branch</text>
</svg>